<svg width="25" height="25" viewBox="0 0 25 25" fill="none" xmlns="http://www.w3.org/2000/svg">
<path d="M11.6952 4.92383H4.69519C4.16476 4.92383 3.65605 5.13454 3.28098 5.50961C2.9059 5.88469 2.69519 6.3934 2.69519 6.92383V20.9238C2.69519 21.4543 2.9059 21.963 3.28098 22.338C3.65605 22.7131 4.16476 22.9238 4.69519 22.9238H18.6952C19.2256 22.9238 19.7343 22.7131 20.1094 22.338C20.4845 21.963 20.6952 21.4543 20.6952 20.9238V13.9238" stroke="#707070" stroke-width="2" stroke-linecap="round" stroke-linejoin="round"/>
<path d="M19.1952 3.42381C19.593 3.02599 20.1326 2.80249 20.6952 2.80249C21.2578 2.80249 21.7974 3.02599 22.1952 3.42381C22.593 3.82164 22.8165 4.3612 22.8165 4.92381C22.8165 5.48642 22.593 6.02599 22.1952 6.42381L12.6952 15.9238L8.69519 16.9238L9.69519 12.9238L19.1952 3.42381Z" stroke="#707070" stroke-width="2" stroke-linecap="round" stroke-linejoin="round"/>
</svg>
